<svg xmlns="http://www.w3.org/2000/svg" xmlns:xlink="http://www.w3.org/1999/xlink" viewBox="0 0 565.69 594.97"><defs><style>.cls-1{fill:url(#Dégradé_sans_nom_6);}.cls-2{fill:#4b5e63;}.cls-3{fill:#374c52;}.cls-4{fill:#243b41;}</style><linearGradient id="Dégradé_sans_nom_6" x1="282.84" y1="3.18" x2="282.84" y2="362.78" gradientTransform="translate(202.07 -152.03) rotate(45) scale(1.02)" gradientUnits="userSpaceOnUse"><stop offset="0" stop-color="#ffbf5e"/><stop offset="1" stop-color="#ffc670"/></linearGradient></defs><title>logo_Fichier 5</title><g id="Calque_2" data-name="Calque 2"><g id="Calque_1-2" data-name="Calque 1"><path class="cls-1" d="M130,21.87H335.65a100,100,0,0,1,100,100V327.49a0,0,0,0,1,0,0H130a0,0,0,0,1,0,0V21.87A0,0,0,0,1,130,21.87Z" transform="translate(-40.68 251.16) rotate(-45)"/><rect class="cls-2" x="19.58" y="471.54" width="107.71" height="100" transform="translate(-347.27 204.68) rotate(-45)"/><rect class="cls-2" x="443.08" y="469.7" width="100" height="105.35" transform="translate(-224.95 501.66) rotate(-45)"/><rect class="cls-3" x="90.78" y="402.02" width="104.35" height="100" transform="translate(-277.75 233.48) rotate(-45)"/><rect class="cls-3" x="372.73" y="399.84" width="100" height="104.35" transform="translate(-195.81 431.31) rotate(-45)"/><rect class="cls-4" x="291.09" y="328.84" width="132.94" height="100" transform="translate(-163.15 363.79) rotate(-45)"/><rect class="cls-4" x="162.63" y="324.65" width="100" height="117.38" transform="translate(-208.78 262.63) rotate(-45)"/><rect class="cls-3" x="232.84" y="403.55" width="100" height="100" transform="translate(-237.87 332.84) rotate(-45)"/><rect class="cls-3" x="89.45" y="257.38" width="100" height="105.57" transform="translate(-178.47 189.45) rotate(-45)"/><rect class="cls-3" x="373.38" y="260" width="106.04" height="100" transform="translate(-94.31 392.31) rotate(-45)"/><rect class="cls-2" x="444.97" y="191.42" width="100" height="100" transform="translate(-25.74 420.71) rotate(-45)"/><rect class="cls-2" x="20.71" y="191.42" width="100" height="100" transform="translate(-150 120.71) rotate(-45)"/></g></g></svg>